<svg width="130" height="32" viewBox="0 0 130 32" fill="none" xmlns="http://www.w3.org/2000/svg">
<path d="M33.3692 0.151475C32.4739 1.63564 31.7172 2.95482 30.8994 4.22493C23.6372 15.4277 13.6541 23.517 1.99122 29.6983C1.69121 29.8623 1.36904 29.9821 1.03472 30.0539C0.667057 30.0539 0.0305794 28.4893 0.0305794 27.0592C0.0284459 18.4465 0.0256013 8.6177 0 0H31.8801C32.2947 0 32.7071 0.0832044 33.3692 0.151475Z" fill="#012168"/>
<path d="M7.50261 29.5895C8.59351 28.9282 9.70362 28.3031 10.7874 27.6303C14.5183 25.2612 18.0378 22.5744 21.3067 19.6C26.4135 14.9606 30.8303 9.61457 34.4231 3.72433C34.8096 3.06044 35.1487 2.3701 35.438 1.65845C35.7729 1.72956 36.8873 3.0139 36.8709 5.11321C36.8923 13.2594 36.8709 31.7265 36.8709 31.7265C27.419 31.7265 4.11683 31.5914 3.34595 31.7479C4.51223 31.0396 6.34344 30.2928 7.50261 29.5895Z" fill="#6CC049"/>
<path d="M72.4226 5.45015C72.3673 5.40565 72.324 5.34807 72.2966 5.28263C72.2692 5.21718 72.2585 5.14593 72.2656 5.07532C72.2726 5.00471 72.2972 4.93698 72.337 4.87826C72.3769 4.81953 72.4307 4.77167 72.4937 4.739C73.5225 4.16831 74.7306 4.01309 75.8702 4.3052C76.1237 4.42908 76.3473 4.60627 76.5259 4.82463C76.7045 5.04299 76.8338 5.29736 76.905 5.57033C77.0611 6.41944 77.1111 7.28468 77.0536 8.14611C76.9974 11.731 76.9078 15.3188 76.8402 18.9037C76.8402 19.2898 76.8402 19.676 76.8708 20.0621C76.9789 21.6352 76.9249 23.3156 79.128 23.5901C77.7612 25.1205 75.7038 25.0423 73.9437 23.4479C73.6401 23.6257 73.3122 23.8198 72.9823 24.0097C72.3081 24.4186 71.5475 24.6638 70.7614 24.7259C69.9754 24.7879 69.1857 24.665 68.4558 24.367C67.7258 24.069 67.0757 23.6042 66.5576 23.0097C66.0396 22.4153 65.668 21.7078 65.4725 20.9439C64.8207 18.7261 65.0749 16.3403 66.1794 14.3096C67.6806 11.4899 70.1149 10.3813 73.249 11.0305C73.4374 11.0711 73.6259 11.0924 74.0668 11.1607C73.9046 9.18155 74.0412 6.68897 72.4226 5.45015ZM74.0717 17.6862C74.0717 16.3144 74.0461 12.5823 74.0461 12.5823H73.2753C72.1957 12.5609 70.7514 12.4969 70.1647 13.7101C69.5565 14.8826 69.2348 16.1826 69.2262 17.5035C69.2175 18.8243 69.5221 20.1284 70.1149 21.3088C70.3503 21.833 70.7451 22.2696 71.2431 22.5564C71.741 22.8432 72.3168 22.9655 72.8884 22.906C73.2632 22.8847 74.0668 22.7638 74.0668 22.7638C74.0668 22.7638 74.0831 22.155 74.0668 21.6928C74.0149 20.3658 74.0668 19.0317 74.0618 17.6954L74.0717 17.6862Z" fill="#012168"/>
<path d="M55.4702 7.56305C54.2918 5.79798 52.6192 5.88048 50.965 5.83354C50.3641 5.81434 50.1053 6.03053 50.0953 6.63216C50.0697 8.20309 50.0363 10.6601 49.9751 12.2197H50.8897C52.0417 12.1983 53.1945 12.2054 54.37 12.2197C54.6175 12.2197 54.9169 11.9352 55.0933 11.549C55.3998 13.3881 54.8742 14.1092 53.4441 14.2123C52.3248 14.2955 51.194 14.2286 50.1017 14.2286V24.7416C49.0019 24.7833 47.9005 24.7651 46.8027 24.6868C46.5673 24.6605 46.2516 23.9451 46.2516 23.549C46.226 18.4785 46.2395 13.4101 46.2395 8.34176C46.2395 6.61936 45.945 5.03848 45.556 4.78602C45.4966 4.74358 45.4514 4.68405 45.4266 4.61534C45.4084 4.56897 45.4017 4.51889 45.407 4.46937C45.4124 4.41984 45.4296 4.37233 45.4572 4.33088C45.4849 4.28944 45.5223 4.25539 45.5662 4.23172C45.6101 4.20804 45.6591 4.19546 45.7089 4.19505C48.5251 4.15025 52.1655 4.15736 54.9105 4.19505C55.0562 4.21179 55.1959 4.26229 55.3186 4.34254C55.4413 4.42279 55.5436 4.53057 55.6174 4.6573C55.9957 5.51139 55.8919 6.33561 55.4702 7.56305Z" fill="#012168"/>
<path d="M117.062 12.0604C117.022 12.024 116.99 11.9788 116.97 11.9283C116.95 11.8777 116.941 11.8232 116.945 11.769C116.949 11.7147 116.966 11.6621 116.994 11.6152C117.021 11.5683 117.059 11.5284 117.105 11.4985C117.517 11.1958 117.988 10.9844 118.488 10.8786C118.988 10.7727 119.505 10.7748 120.004 10.8848C121.035 11.1216 121.326 12.0006 121.599 12.8867C122.239 14.949 122.883 17.0114 123.552 19.0637C123.717 19.5658 123.988 20.033 124.351 20.8196C125.23 18.2132 126.033 15.9169 126.759 13.605C127.211 12.1549 126.217 12.1827 126.318 11.9274C126.587 11.2162 128.144 10.3849 128.851 10.9794C128.994 11.1614 129.098 11.3711 129.157 11.5954C129.215 11.8196 129.226 12.0535 129.189 12.2822C129.072 12.9358 128.875 13.5725 128.602 14.1774C126.873 18.6506 125.135 23.1154 123.386 27.5719C123.068 28.4176 122.682 29.2362 122.232 30.0197C121.924 30.6401 121.442 31.1574 120.845 31.5084C120.248 31.8594 119.561 32.0288 118.869 31.996C117.399 31.9249 116.654 30.8112 117.05 29.3235C119.51 30.5083 120.432 30.1811 121.636 27.6651C121.855 27.2057 122.036 26.7171 122.281 26.2791C122.753 25.4257 122.988 24.6797 121.904 24.0468C121.596 23.8668 121.433 23.3356 121.32 22.9331C120.816 21.3216 120.358 19.6938 119.866 18.0781C119.221 15.9653 118.86 13.7187 117.062 12.0604Z" fill="#012168"/>
<path d="M82.3238 17.2161C82.503 19.3034 82.7505 21.1986 84.7012 22.0854C86.9889 23.1229 88.8486 22.0854 90.5283 20.3367C90.6646 20.9195 90.6118 21.5306 90.3776 22.0814C90.1433 22.6322 89.7398 23.0942 89.2255 23.4003C88.2543 24.1486 87.0939 24.6115 85.8743 24.7372C84.6547 24.8628 83.4243 24.6461 82.321 24.1114C80.0517 23.0597 79.3285 21.0073 79.2574 18.6619C79.1941 16.2241 79.7289 13.9584 81.5572 12.2004C82.3765 11.4588 83.3964 10.9755 84.4891 10.8111C85.5819 10.6466 86.6988 10.8083 87.7001 11.2759C89.3755 12.0625 90.4124 14.1205 90.3313 16.3251C90.3007 17.1308 89.8008 17.2446 89.2518 17.2496C87.4512 17.2688 85.6491 17.2261 83.8471 17.209C83.3984 17.2133 82.9461 17.2161 82.3238 17.2161ZM82.2157 15.7938H86.9285C87.0068 15.0106 86.896 14.22 86.6056 13.4883C86.5276 13.3088 86.4323 13.1373 86.3212 12.9763C86.1706 12.7085 85.9507 12.4862 85.6847 12.3326C85.4186 12.179 85.1162 12.0997 84.809 12.1031C84.5018 12.1065 84.2012 12.1925 83.9386 12.352C83.676 12.5115 83.4612 12.7387 83.3166 13.0097C82.7509 13.8467 82.3749 14.7971 82.215 15.7946L82.2157 15.7938Z" fill="#012168"/>
<path d="M96.352 24.728H92.8624C92.8624 24.728 92.9001 18.4322 92.9236 15.8387C92.9406 13.7526 92.9594 11.6683 92.9797 9.58554C92.9982 7.96484 93.0928 6.32493 91.4863 5.08326C92.7401 4.2562 93.9206 3.89849 95.1601 4.31807C95.6648 4.58225 96.0455 5.034 96.2205 5.57609C96.3723 6.18449 96.4232 6.81369 96.3712 7.43859C96.3776 13.0154 96.4032 24.4059 96.352 24.728Z" fill="#012168"/>
<path d="M114.56 21.7611C114.644 22.2072 114.579 22.669 114.373 23.0738C114.167 23.4786 113.832 23.8035 113.422 23.9976C112.704 24.4467 111.887 24.7138 111.042 24.7757C110.198 24.8377 109.351 24.6927 108.575 24.3532C108.112 24.1652 107.717 23.8406 107.444 23.4228C107.17 23.0049 107.03 22.5136 107.043 22.0142C107 20.0166 107.068 18.0169 107.09 16.0171C107.09 15.195 107.106 14.3587 107.09 13.553C107.11 13.1493 106.997 12.7501 106.769 12.4163C106.541 12.0825 106.21 11.8324 105.827 11.704C105.784 11.6899 105.748 11.6629 105.721 11.6268C105.695 11.5907 105.681 11.5473 105.681 11.5028V11.0291C105.681 10.9725 105.703 10.9183 105.743 10.8783C105.783 10.8383 105.838 10.8158 105.894 10.8158C106.201 10.8406 106.509 10.8029 106.8 10.7048C107.092 10.6068 107.36 10.4505 107.589 10.2454C107.818 10.0404 108.003 9.79096 108.132 9.51222C108.262 9.23347 108.334 8.93128 108.343 8.62402H110.084C110.084 8.62402 110.136 9.311 110.117 9.64737C110.072 10.5143 110.352 10.8677 111.248 10.8016C112.143 10.7354 113.034 10.7873 114.054 10.7873C114.289 11.4508 113.941 11.9721 113.191 12.2466C112.82 12.3667 112.432 12.4291 112.041 12.4315C110.128 12.4955 110.131 12.4863 110.135 14.3794C110.135 16.1473 110.102 17.9145 110.153 19.6795C110.229 22.3449 111.291 23.0298 113.804 22.0974C114.062 21.9999 114.314 21.8876 114.56 21.7611Z" fill="#012168"/>
<path d="M98.7907 12.305C98.7256 12.2456 98.6764 12.1709 98.6476 12.0876C98.6188 12.0043 98.6114 11.9152 98.6258 11.8283C98.6403 11.7414 98.6764 11.6595 98.7306 11.5901C98.7849 11.5207 98.8557 11.466 98.9365 11.431C99.7251 11.1323 100.547 10.9317 101.385 10.8336C102.438 10.6914 103.034 11.4096 103.211 12.492C103.24 12.6826 103.253 12.8753 103.251 13.068V24.6377H99.9086C99.9086 24.6377 99.8688 20.1354 99.9086 17.7666C99.9485 15.3977 99.8112 13.2693 98.7907 12.305Z" fill="#012168"/>
<path d="M58.0267 12.1599C57.9816 12.1278 57.9459 12.0842 57.9235 12.0336C57.901 11.983 57.8926 11.9273 57.8991 11.8723C57.9056 11.8174 57.9267 11.7651 57.9603 11.7211C57.9939 11.6771 58.0386 11.643 58.09 11.6222C58.739 11.3367 59.4067 11.0953 60.0883 10.8997C61.7659 10.5065 62.7195 11.1771 62.7508 12.9045C62.817 16.7809 62.7722 20.6595 62.7722 24.7301C61.8107 24.7301 59.3722 24.6853 59.3722 24.6853C59.3722 22.0171 59.4433 18.423 59.4902 15.7526C59.56 15.0796 59.463 14.3998 59.2077 13.7732C58.9525 13.1466 58.5468 12.5925 58.0267 12.1599Z" fill="#012168"/>
<path d="M101.448 6.16071C101.898 6.22439 102.309 6.45414 102.598 6.80482C102.888 7.1555 103.035 7.60176 103.013 8.05592C102.974 8.50825 102.76 8.92733 102.415 9.22261C102.07 9.5179 101.623 9.66565 101.17 9.63396C100.943 9.62644 100.719 9.57305 100.513 9.477C100.307 9.38094 100.122 9.2442 99.9704 9.075C99.8178 8.9053 99.7007 8.70671 99.6262 8.491C99.5517 8.27528 99.5212 8.04681 99.5366 7.81911C99.5726 7.34667 99.7936 6.90753 100.151 6.59703C100.509 6.28653 100.975 6.12975 101.448 6.16071Z" fill="#012168"/>
<path d="M62.5278 7.93071C62.5277 8.15673 62.4825 8.38045 62.3948 8.58877C62.3071 8.7971 62.1788 8.98583 62.0172 9.14393C61.8562 9.30151 61.6651 9.4251 61.4554 9.50732C61.2456 9.58954 61.0214 9.62872 60.7962 9.62253C60.5714 9.62608 60.3481 9.58519 60.1392 9.5022C59.9303 9.41921 59.7398 9.29576 59.5787 9.13895C59.2525 8.82054 59.0658 8.3858 59.0596 7.92999C59.06 7.69456 59.1072 7.46155 59.1984 7.2445C59.2896 7.02744 59.4229 6.83066 59.5908 6.66557C59.758 6.50124 59.9564 6.37198 60.1742 6.2854C60.3921 6.19881 60.6251 6.15664 60.8595 6.16137C61.3149 6.17624 61.7459 6.37063 62.0584 6.70211C62.371 7.03359 62.5397 7.47526 62.5278 7.93071Z" fill="#012168"/>
</svg>
