<svg width="80" height="80" viewBox="0 0 80 80" fill="none" xmlns="http://www.w3.org/2000/svg">
<g clip-path="url(#clip0)">
<path d="M11.1635 45.7642C11.1635 24.702 28.2443 7.62124 49.3065 7.62124C54.3724 7.61906 59.3881 8.62424 64.0615 10.5801C57.2665 5.04398 48.7679 2.02699 40.0033 2.03934C18.9411 2.03934 1.86035 19.1201 1.86035 40.1823C1.86253 55.5493 11.0799 69.4168 25.2484 75.3672C16.3282 68.1296 11.1519 57.2515 11.1635 45.7642Z" fill="#D1DBE3"/>
<path d="M40.0038 0.178581C23.8235 0.175674 9.23571 9.92147 3.04402 24.8705C-3.14695 39.8195 0.277781 57.026 11.7221 68.4638C27.342 84.0837 52.6662 84.0837 68.2854 68.4638C83.9053 52.8447 83.9053 27.5204 68.2854 11.9006C60.8014 4.37373 50.6181 0.153143 40.0038 0.178581ZM40.0038 76.4645C20.0019 76.4645 3.72141 60.184 3.72141 40.1822C3.72141 20.1804 20.0019 3.89985 40.0038 3.89985C60.0056 3.89985 76.2861 20.1804 76.2861 40.1822C76.2861 60.184 60.0056 76.4645 40.0038 76.4645Z" fill="#002082"/>
<path d="M59.0184 27.884L34.9981 50.8439L21.9177 37.7453C21.1931 37.0207 20.0185 37.0207 19.2939 37.7453C18.57 38.4692 18.57 39.6438 19.2939 40.3684L33.6767 54.7512C34.0256 55.103 34.5024 55.2978 34.9981 55.2905C35.4785 55.2956 35.9408 55.1081 36.2816 54.7701L61.5862 30.5819C62.3203 29.8703 62.3443 28.7002 61.64 27.9596C60.935 27.2197 59.7656 27.1855 59.0184 27.884Z" fill="#002082"/>
</g>
<defs>
<clipPath id="clip0">
<rect width="80" height="80" fill="white"/>
</clipPath>
</defs>
</svg>
